<svg fill="#000000" xmlns="http://www.w3.org/2000/svg" viewBox="0 0 100 100" width="64px" height="64px">
    <path fill="none" stroke="#000000" stroke-linejoin="round" stroke-miterlimit="10" stroke-width="2"
          d="M69,62H31c-2.761,0-5-2.239-5-5v-9c0-0.552,0.448-1,1-1h46c0.552,0,1,0.448,1,1v9C74,59.761,71.761,62,69,62z"/>
    <path fill="none" stroke="#000000" stroke-linejoin="round" stroke-miterlimit="10" stroke-width="2"
          d="M72,61v24c0,2.761-2.239,5-5,5H33c-2.761,0-5-2.239-5-5V61"/>
    <path fill="none" stroke="#000000" stroke-linecap="round" stroke-linejoin="round" stroke-miterlimit="10"
          d="M29.5 50.5L61.5 50.5M63.5 50.5L66.5 50.5M68.5 50.5L70.5 50.5M68.5 65.5v15c0 3.314-2.686 6-6 6h-25c-3.314 0-6-2.686-6-6v-15"/>
    <path fill="none" stroke="#000000" stroke-linecap="round" stroke-linejoin="round" stroke-miterlimit="10"
          d="M56.5,72.5h-13c-1.105,0-2-0.895-2-2v-1c0-1.105,0.895-2,2-2h13c1.105,0,2,0.895,2,2v1C58.5,71.605,57.605,72.5,56.5,72.5z"/>
    <path fill="none" stroke="#000000" stroke-linejoin="round" stroke-miterlimit="10"
          d="M50 22L50 22l5.5 5.5-11 0L50 22zM71.5 27.5v7.778L63.722 27.5 71.5 27.5 71.5 27.5zM36.278 27.5L36.278 27.5 28.5 35.278l0-7.778H36.278z"/>
    <path fill="none" stroke="#000000" stroke-linecap="round" stroke-linejoin="round" stroke-miterlimit="10"
          stroke-width="2" d="M50 28L50 41M67.257 31.743L58 41M32.765 31.72L32.743 31.743 42 41"/>
    <path fill="none" stroke="#000000" stroke-linecap="round" stroke-linejoin="round" stroke-miterlimit="10"
          d="M50 9.5A4.5 4.5 0 1 0 50 18.5 4.5 4.5 0 1 0 50 9.5zM77 17.5A4.5 4.5 0 1 0 77 26.5 4.5 4.5 0 1 0 77 17.5zM23 17.5A4.5 4.5 0 1 0 23 26.5 4.5 4.5 0 1 0 23 17.5z"/>
</svg>